<?xml version="1.0" encoding="UTF-8" standalone="no"?>
<!-- Created with Inkscape (http://www.inkscape.org/) -->

<svg
   width="143.66985mm"
   height="132.28319mm"
   viewBox="0 0 143.66985 132.28319"
   version="1.1"
   id="svg1"
   xml:space="preserve"
   inkscape:export-filename="bomb.svg"
   inkscape:export-xdpi="96"
   inkscape:export-ydpi="96"
   xmlns:inkscape="http://www.inkscape.org/namespaces/inkscape"
   xmlns:sodipodi="http://sodipodi.sourceforge.net/DTD/sodipodi-0.dtd"
   xmlns="http://www.w3.org/2000/svg"
   xmlns:svg="http://www.w3.org/2000/svg"><sodipodi:namedview
     id="namedview1"
     pagecolor="#505050"
     bordercolor="#eeeeee"
     borderopacity="1"
     inkscape:showpageshadow="0"
     inkscape:pageopacity="0"
     inkscape:pagecheckerboard="0"
     inkscape:deskcolor="#505050"
     inkscape:document-units="mm"
     inkscape:zoom="0.71446409"
     inkscape:cx="396.80091"
     inkscape:cy="561.25984"
     inkscape:window-width="1902"
     inkscape:window-height="973"
     inkscape:window-x="952"
     inkscape:window-y="0"
     inkscape:window-maximized="0"
     inkscape:current-layer="layer1" /><defs
     id="defs1" /><g
     inkscape:label="Layer 1"
     inkscape:groupmode="layer"
     id="layer1"
     transform="translate(-26.97848,-13.079383)"><g
       id="g100"><g
         id="g99"
         inkscape:export-filename="bomb.svg"
         inkscape:export-xdpi="96"
         inkscape:export-ydpi="96"><path
           d="M 101.20536,38.365523 C 95.842333,36.757536 90.25055,35.934234 84.6177,35.93012 53.72322,35.930067 28.67831,60.046978 28.67848,89.796598 c 1.2e-4,29.749422 25.04494,53.866022 55.93922,53.865972 30.89429,6e-5 55.93912,-24.11654 55.93923,-53.865972 -2.2e-4,-8.33305 -2.00787,-16.53256 -5.84002,-23.96155 m -2.10627,-3.71014 c -1.83093,-0.48136 -3.69901,-1.25682 -5.37952,-2.21692 -6.7977,-3.88365 -19.15801,-12.029301 -22.08754,-20.204455"
           style="fill-opacity:0.485816;stroke:#0b0707;stroke-width:3.4;stroke-linecap:butt;stroke-dasharray:none"
           id="path11"
           sodipodi:nodetypes="cccccccsc" /><path
           d="m 132.61064,62.124908 c 4.88802,1.28507 9.50174,0.40543 9.50175,-5.17075 0,-7.664884 -11.11385,-18.055416 -20.06545,-22.766567 -3.36164,-1.769206 -8.59499,-4.321795 -12.42043,-4.181141 -1.73883,0.06393 -3.18667,0.684543 -4.03593,2.187981 -1.36758,2.421036 -1.35815,4.966425 -0.447,7.509102"
           style="fill-opacity:0.485816;stroke:#0b0707;stroke-width:3.4;stroke-linecap:round;stroke-dasharray:none"
           id="path10"
           sodipodi:nodetypes="cssssc" /><path
           style="fill:#ffffff;fill-opacity:1;stroke:none;stroke-width:2;stroke-linecap:round;stroke-dasharray:none;stroke-opacity:1"
           d="m 62.82218,59.344448 c -4.56316,1.64749 -10.51487,4.85873 -10.83198,9.72101 -0.27774,4.25873 3.30834,8.33229 9.90617,8.33229 6.851,10e-6 15.79385,-2.44052 18.42363,-8.70261 1.20169,-2.86149 -0.5611,-6.9481 -3.05517,-8.7952 -3.87163,-2.86731 -9.91117,-2.19154 -14.44265,-0.55549 z"
           id="path13"
           sodipodi:nodetypes="assaaa" /><path
           style="fill:none;fill-opacity:0.485816;stroke:#0b0707;stroke-width:5;stroke-linecap:round;stroke-dasharray:none"
           d="m 123.31358,45.300352 c 10.29706,-10.370232 -5.91051,-14.143645 10.29706,-10.370232 2.99685,0.697719 6.2852,0.118812 7.94629,1.194497 7.32245,4.741847 3.60414,12.676273 9.04686,2.578916 1.19916,-2.224689 5.79313,-2.37334 5.6153,-5.094452 -0.11343,-1.735564 -1.60892,-5.088023 1.26717,-9.428729 2.70645,-4.08468 8.33828,-8.415065 10.66206,-8.600968"
           id="path24"
           sodipodi:nodetypes="csssssc" /><path
           d="m 105.14358,39.703533 c 2.92953,8.175154 15.28984,16.320805 22.08754,20.204455 1.68051,0.9601 3.54859,1.73556 5.37952,2.21692"
           style="fill:none;fill-opacity:0.485816;stroke:#0b0707;stroke-width:2;stroke-linecap:round"
           id="path9"
           sodipodi:nodetypes="csc" /><path
           style="fill:none;fill-opacity:0.485816;stroke:#0b0707;stroke-width:3.4;stroke-linecap:butt;stroke-dasharray:none"
           d="m 105.59058,32.194431 -8.99606,12.062117 c -0.26694,6.92233 6.20624,15.03672 10.94782,18.51014 7.63277,5.59135 20.36432,8.52072 20.36432,8.52072 l 13.07836,-10.51588"
           id="path12"
           sodipodi:nodetypes="ccscc" /><path
           style="fill:#750202;fill-opacity:1;stroke:#000000;stroke-width:0.049485;stroke-linecap:round;stroke-dasharray:none;stroke-opacity:1"
           d="m 134.69036,60.87914 c -2.46173,-0.388443 -5.43025,-1.636845 -8.86723,-3.72909 -7.46917,-4.546807 -13.50146,-9.491533 -16.57746,-13.588704 -1.1137,-1.483434 -2.16811,-3.373527 -2.68121,-4.806251 -0.43631,-1.218293 -0.44195,-3.646805 -0.011,-4.73242 0.67055,-1.689124 1.38012,-2.217954 3.09987,-2.310294 2.49116,-0.13376 6.04322,1.046951 11.17673,3.71516 1.03441,0.537647 2.28642,1.239973 2.78225,1.560724 l 0.90151,0.583182 v 0.717841 c 0,1.315733 -0.94928,3.139056 -2.53851,4.875837 -1.14041,1.246285 -1.36795,2.052714 -0.88141,3.123824 0.50271,1.106725 1.61355,1.643705 2.81374,1.360167 0.58004,-0.13703 0.80217,-0.294547 1.62869,-1.154914 1.43521,-1.493996 2.84458,-3.645178 3.29043,-5.022323 0.0874,-0.270042 0.22082,-0.490985 0.29642,-0.490985 0.23903,0 2.32575,1.834999 4.09448,3.600556 3.47926,3.473008 5.72745,6.723792 6.77199,9.792012 0.35446,1.041178 0.41147,1.393997 0.41704,2.580814 0.005,1.123313 -0.0434,1.484263 -0.26622,1.973461 -0.29986,0.658442 -1.1561,1.437037 -1.941,1.764988 -0.60354,0.252172 -2.46553,0.351089 -3.50913,0.186415 z"
           id="path58" /><path
           style="fill:#750202;fill-opacity:1;stroke:none;stroke-width:0;stroke-linecap:butt;stroke-dasharray:none;stroke-opacity:1"
           d="m 387.2986,148.38414 c -5.74433,6.75405 -10.82855,14.09324 -16.18073,21.15878 1.03959,15.18222 8.71525,28.87274 17.42524,40.96848 31.58839,11.79829 63.46344,24.49256 97.29846,27.86771 2.07016,0.1155 4.51556,0.56636 6.3488,0.14922 -13.03781,-4.98792 -24.68956,-12.8452 -36.39471,-20.31933 -19.43471,-13.02473 -38.34014,-27.54514 -52.87359,-46.0699 -4.62216,-5.91696 -8.45991,-12.43757 -11.20856,-19.41728 -1.0398,-1.81873 -3.29292,-2.68979 -4.41491,-4.33768 z"
           id="path68"
           transform="scale(0.26458333)" /><path
           style="fill:#750202;fill-opacity:1;stroke:none;stroke-width:0;stroke-linecap:butt;stroke-dasharray:none;stroke-opacity:1"
           d="m 389.34289,145.35709 c -0.75491,0.97168 -1.48251,1.96873 -2.22694,2.95016 0.26894,0.54669 0.87052,0.94742 1.31525,1.3906 0.90634,0.76124 1.81916,1.50807 2.69132,2.29681 0.36535,-0.01 0.0302,-0.51462 -0.005,-0.70734 -0.69755,-1.93801 -1.10244,-3.97706 -1.68562,-5.93382 -0.0191,-0.0234 -0.0595,0.002 -0.0892,0.004 z"
           id="path69"
           transform="scale(0.26458333)" /><path
           style="fill:#750202;fill-opacity:1;stroke:none;stroke-width:0;stroke-linecap:butt;stroke-dasharray:none;stroke-opacity:1"
           d="m 387.13221,148.31289 c -0.0501,0.022 -0.0733,0.0758 -0.10772,0.11513 -0.0459,0.0635 -0.0965,0.12403 -0.13892,0.18974 -0.0283,0.0481 -0.003,0.10954 0.0417,0.13796 0.0356,0.0336 0.0878,0.0628 0.1367,0.0404 0.0458,-0.0182 0.0681,-0.067 0.1016,-0.10036 0.0439,-0.0548 0.0936,-0.10544 0.13367,-0.16299 0.0281,-0.0497 0.003,-0.10609 -0.0263,-0.14874 -0.0211,-0.0414 -0.0588,-0.0798 -0.10881,-0.0772 -0.0107,4.4e-4 -0.0213,0.004 -0.0319,0.006 z"
           id="path71"
           transform="scale(0.26458333)" /><path
           style="fill:#750202;fill-opacity:1;stroke:none;stroke-width:0;stroke-linecap:butt;stroke-dasharray:none;stroke-opacity:1"
           d="m 386.90511,148.64832 c -0.061,0.003 -0.0915,0.0621 -0.12472,0.1044 -0.19293,0.25839 -0.38708,0.51595 -0.57692,0.77658 -0.0304,0.0498 -0.008,0.12304 0.0473,0.14361 0.0486,0.0232 0.10491,-0.004 0.13347,-0.0459 0.21751,-0.26082 0.43562,-0.521 0.65373,-0.78148 0.0371,-0.0489 0.018,-0.12174 -0.0315,-0.15444 -0.0285,-0.0244 -0.0619,-0.0465 -0.10139,-0.0428 z"
           id="path72"
           transform="scale(0.26458333)" /><path
           style="fill:#750202;fill-opacity:1;stroke:none;stroke-width:0;stroke-linecap:butt;stroke-dasharray:none;stroke-opacity:1"
           d="m 315.65965,142.06355 c -62.53698,0.50152 -124.06535,31.123 -161.75344,81.09079 -22.14795,29.10237 -36.21217,64.61831 -38.7431,101.17703 -0.76755,19.93726 -0.64878,40.15761 4.61346,59.55698 10.97442,45.61053 39.1123,86.81666 77.40955,113.85958 67.20258,-13.88021 135.91259,-27.94719 196.40141,-61.82551 44.99165,-24.8088 83.84047,-61.94859 106.93635,-108.16462 6.8253,-13.36944 12.55179,-27.2906 17.21363,-41.55219 -3.33479,-9.24049 -5.98627,-19.0311 -10.96016,-27.5012 -7.44285,4.84511 -13.42278,11.95284 -21.30159,16.11292 -6.36825,1.32632 -12.50599,-2.57307 -18.63337,-3.70541 -23.49234,-7.34474 -47.17502,-16.21357 -66.87545,-31.31157 -12.27102,-10.06646 -22.24667,-22.61069 -30.71771,-35.96715 l -0.59801,-1.03442 c -4.70632,-10.25217 -9.38108,-20.93659 -9.26084,-32.46068 -1.49554,-4.75944 1.58472,-8.11606 4.4093,-11.55107 2.28599,-3.42556 5.57092,-6.65465 6.91762,-10.4921 -17.84289,-4.77329 -36.6164,-6.37302 -55.05765,-6.23138 z m -49.7875,76.98625 c 13.06913,-0.56063 27.32929,4.44605 34.05852,16.33251 5.63591,8.55828 7.3677,20.35253 1.33825,29.1944 -10.0976,15.49492 -28.73322,22.57124 -46.13207,26.03534 -15.20202,2.43511 -32.67713,4.30687 -46.04731,-5.03482 -11.06325,-7.12938 -16.40386,-22.7366 -9.66333,-34.52532 8.18496,-14.29305 24.15571,-21.62858 38.97319,-27.10366 8.80488,-3.18687 18.0841,-4.98912 27.47275,-4.89845 z"
           id="path73"
           transform="scale(0.26458333)"
           sodipodi:nodetypes="cccccccccccccccccccccccccc" /><path
           style="fill:#4b0505;fill-opacity:1;stroke:none;stroke-width:0;stroke-linecap:butt;stroke-dasharray:none;stroke-opacity:1"
           d="m 515.79297,297.65743 c -15.12056,42.49899 -41.87813,80.63328 -76.60042,109.41723 -46.88296,39.13657 -105.58164,60.46745 -164.06553,75.36692 -24.41527,6.17771 -49.18309,11.08808 -73.74384,16.51341 -1.28717,1.82647 2.6301,2.99647 3.58353,4.07676 29.77207,19.55462 64.831,30.76264 100.27554,33.41094 23.43688,0.41175 47.20447,-0.17557 69.85552,-6.86709 38.53563,-10.31632 74.04264,-31.7981 100.45909,-61.76648 32.77597,-36.46184 51.61494,-85.58153 49.36496,-134.75907 -0.50944,-14.40924 -2.36034,-29.17411 -6.40539,-42.81724 -0.90783,2.47487 -1.81565,4.94974 -2.72346,7.42462 z"
           id="path74"
           transform="scale(0.26458333)" /><path
           style="fill:#4b0505;fill-opacity:1;stroke:none;stroke-width:0;stroke-linecap:butt;stroke-dasharray:none;stroke-opacity:1"
           d="m 391.13225,212.15827 c -1.65754,0.65737 1.06526,2.89164 1.51779,3.7137 9.96359,10.99741 21.52016,20.69393 35.06137,26.97961 17.04406,8.44849 35.09244,15.28614 53.617,19.49608 8.02414,-5.07544 15.64691,-11.06291 22.41888,-17.70529 0.84176,-1.32737 -2.94804,-1.48174 -1.74844,-2.74556 2.18263,-0.40548 -1.89534,-1.23912 -2.45658,-1.29917 -8.71522,-1.9852 -17.80065,-2.04604 -26.53203,-3.53181 -1.43241,-1.2788 -3.76821,0.29327 -5.22182,-1.3272 -2.75808,0.40683 -5.67792,-1.01937 -8.51704,-1.32445 -1.39309,-1.00114 -3.35383,-0.0488 -4.29651,-1.43355 -1.22237,0.21955 -2.23032,0.20558 -2.83809,-0.8024 -1.61092,0.5956 -2.6371,-1.26627 -4.30479,-0.56485 -0.35673,-1.67421 -2.88316,0.28086 -3.19993,-1.44046 -1.10744,0.0219 -1.83468,0.16039 -2.63094,-0.68362 -1.86617,-0.13488 -3.53573,-0.73295 -5.01327,-1.52747 -1.45086,0.83396 -1.43685,-1.59502 -3.04802,-0.53171 -0.47844,-0.88995 -1.30958,-0.98037 -2.36577,-0.78582 -0.17667,-1.58566 -2.28033,0.0987 -2.49835,-1.42389 -1.02357,-0.0147 -1.80916,0.21849 -2.276,-0.77892 -1.03382,0.2536 -1.64786,0.14536 -2.12132,-0.7071 -1.03382,0.2536 -1.64786,0.14535 -2.12132,-0.70711 -1.18873,0.40364 -1.6867,-0.10367 -2.21662,-0.88389 -2.1065,0.56475 -4.25142,-0.98812 -5.748,-2.01773 -1.1846,0.70975 -1.46539,-0.24336 -2.03017,-0.81069 -2.10651,0.56475 -4.25142,-0.98813 -5.74801,-2.01774 -1.58415,0.88295 -2.08712,-1.29085 -3.83384,-0.94051 -1.1408,-0.58988 -1.88889,-1.40722 -3.26485,-1.06066 -0.37144,-2.02719 -3.45393,-0.62859 -4.82545,-1.84096 -1.22094,-0.70573 -2.07015,-1.56797 -3.75788,-1.29683 z"
           id="path75"
           transform="scale(0.26458333)" /><path
           style="fill:#4b0505;fill-opacity:1;stroke:none;stroke-width:0;stroke-linecap:butt;stroke-dasharray:none;stroke-opacity:1"
           d="m 501.14758,242.2844 1.53906,3.32235 4.11993,-3.13422 c -2.22262,-0.48128 -3.91844,-1.12996 -5.00999,-1.3558 l 0.21183,0.70694 z"
           id="path76"
           transform="scale(0.26458333)"
           sodipodi:nodetypes="cccccc" /><path
           style="fill:#4b0505;fill-opacity:1;stroke:none;stroke-width:0;stroke-linecap:butt;stroke-dasharray:none;stroke-opacity:1"
           d="m 389.01111,210.6633 c -0.0615,0.11597 0.0757,0.20092 0.12535,0.29175 0.4633,0.60971 0.93884,1.21152 1.4131,1.8114 0.0927,0.0667 0.18266,-0.0381 0.19061,-0.12805 0.10099,-0.27605 0.41242,-0.40804 0.68989,-0.41121 0.54212,-0.0516 1.10613,0.0355 1.60644,0.26472 0.57259,0.252 1.09639,0.62515 1.63287,0.95355 0.25177,0.16759 0.49548,0.35533 0.78565,0.45328 0.71212,0.25838 1.48374,0.22869 2.22752,0.27913 0.15899,-0.002 0.32102,0.0458 0.47768,0.0176 0.1008,-0.0516 0.0511,-0.19521 -0.0516,-0.20553 -2.99314,-1.12597 -5.98788,-2.24787 -8.98531,-3.36234 -0.0462,-0.007 -0.0784,0.003 -0.11224,0.0357 z"
           id="path77"
           transform="scale(0.26458333)" /><path
           style="fill:#4b0505;fill-opacity:1;stroke:none;stroke-width:0;stroke-linecap:butt;stroke-dasharray:none;stroke-opacity:1"
           d="m 399.33527,214.46719 c -0.11011,0.0292 -0.0876,0.16581 -0.0142,0.22208 0.1502,0.16884 0.24139,0.37745 0.28228,0.59698 0.004,0.11272 0.13809,0.12415 0.22078,0.093 0.58782,-0.14174 1.21272,-0.0138 1.73598,0.27533 0.46967,0.25373 0.91194,0.56022 1.38953,0.79692 0.12949,0.008 0.26104,-0.0331 0.39321,-0.0225 0.4956,-0.0187 0.94408,0.24121 1.33136,0.52321 0.40042,0.27371 0.80156,0.61556 1.30552,0.65735 0.28938,0.0202 0.58707,-0.0536 0.83493,-0.2023 0.081,-0.0748 0.004,-0.1894 -0.0886,-0.20313 -2.45087,-0.90752 -4.89858,-1.82394 -7.34726,-2.73712 -0.0145,6e-5 -0.029,1.2e-4 -0.0435,1.8e-4 z"
           id="path78"
           transform="scale(0.26458333)" /><path
           style="fill:#4b0505;fill-opacity:1;stroke:none;stroke-width:0;stroke-linecap:butt;stroke-dasharray:none;stroke-opacity:1"
           d="m 406.96335,217.3378 c -0.0938,0.0545 -0.0449,0.17532 0.038,0.2112 0.99285,0.68348 2.01375,1.36524 3.16915,1.74161 0.51455,0.16461 1.05485,0.27221 1.59728,0.23652 0.19336,-0.0152 0.39613,-0.001 0.58154,-0.0641 0.0959,-0.0547 0.0445,-0.18878 -0.0523,-0.20413 -1.28168,-0.47936 -2.56957,-0.94242 -3.85233,-1.41904 -0.4731,-0.1713 -0.9427,-0.35413 -1.42023,-0.5122 -0.0204,0.003 -0.0407,0.007 -0.0611,0.0101 z"
           id="path79"
           transform="scale(0.26458333)" /><path
           style="fill:#4b0505;fill-opacity:1;stroke:none;stroke-width:0;stroke-linecap:butt;stroke-dasharray:none;stroke-opacity:1"
           d="m 414.82753,220.23316 c -0.11346,0.10211 0.0331,0.20872 0.11896,0.25879 1.13106,0.77796 2.32983,1.5398 3.69767,1.8062 0.47931,0.0958 0.9761,0.0798 1.45767,0.011 0.12472,0.001 0.18051,-0.17913 0.0557,-0.22766 -1.50776,-0.54623 -3.02199,-1.07678 -4.5311,-1.61997 -0.24509,-0.0816 -0.48589,-0.18047 -0.73565,-0.24594 -0.0211,0.006 -0.0422,0.0117 -0.0633,0.0176 z"
           id="path80"
           transform="scale(0.26458333)" /><path
           style="fill:#4b0505;fill-opacity:1;stroke:none;stroke-width:0;stroke-linecap:butt;stroke-dasharray:none;stroke-opacity:1"
           d="m 420.43873,222.19091 c -0.1334,0.0178 -0.10096,0.17404 -0.0226,0.23819 0.28655,0.40768 0.69663,0.7872 1.21589,0.83145 0.2957,0.0332 0.59276,-0.0221 0.87603,-0.10164 0.22979,0.39314 0.609,0.71614 1.07007,0.78384 0.36704,0.0381 0.74213,-0.0102 1.09738,-0.10401 0.11141,-0.0692 0.0236,-0.2038 -0.0805,-0.21277 -1.36395,-0.47773 -2.72856,-0.95421 -4.09538,-1.42409 -0.0199,-0.005 -0.0399,-0.0118 -0.0608,-0.011 z"
           id="path81"
           transform="scale(0.26458333)" /><path
           style="fill:#4b0505;fill-opacity:1;stroke:none;stroke-width:0;stroke-linecap:butt;stroke-dasharray:none;stroke-opacity:1"
           d="m 412.71092,219.45916 c -0.11892,0.12115 0.0617,0.24774 0.12388,0.34584 0.24072,0.27878 0.49508,0.63772 0.89819,0.66148 0.30285,0.0442 0.59954,-0.0702 0.85504,-0.21935 0.11492,-0.10025 -0.048,-0.20541 -0.14802,-0.21437 -0.55416,-0.19644 -1.10194,-0.41428 -1.66215,-0.59181 -0.0223,0.006 -0.0446,0.0121 -0.0669,0.0182 z"
           id="path82"
           transform="scale(0.26458333)" /><path
           style="fill:#4b0505;fill-opacity:1;stroke:none;stroke-width:0;stroke-linecap:butt;stroke-dasharray:none;stroke-opacity:1"
           d="m 424.70472,223.68458 c -0.15839,0.0396 -0.0688,0.21175 -8e-4,0.29307 0.26973,0.42626 0.75927,0.71753 1.27069,0.68583 0.26007,-0.0139 0.53055,-0.0253 0.77706,-0.11314 0.10241,-0.0757 0.0109,-0.20028 -0.0895,-0.21079 -0.63863,-0.23234 -1.28041,-0.4594 -1.93134,-0.65436 -0.009,0.005 -0.0175,-0.002 -0.0261,-6.1e-4 z"
           id="path83"
           transform="scale(0.26458333)" /><path
           style="fill:#4b0505;fill-opacity:1;stroke:none;stroke-width:0;stroke-linecap:butt;stroke-dasharray:none;stroke-opacity:1"
           d="m 426.77917,224.41978 c -0.12803,0.11373 0.0448,0.25117 0.0977,0.35826 0.24574,0.3654 0.68911,0.56282 1.12417,0.54389 0.33931,0.005 0.68208,0.0339 1.01985,3.8e-4 0.12145,-0.0481 0.0565,-0.21046 -0.0561,-0.21467 -0.70285,-0.24231 -1.4069,-0.48318 -2.11829,-0.6989 -0.0233,-0.007 -0.0448,0.008 -0.0674,0.011 z"
           id="path84"
           transform="scale(0.26458333)" /><path
           style="fill:#4b0505;fill-opacity:1;stroke:none;stroke-width:0;stroke-linecap:butt;stroke-dasharray:none;stroke-opacity:1"
           d="m 429.08356,225.1584 c -0.16038,0.0341 -0.0922,0.23055 -0.0453,0.33201 0.072,0.20635 0.22194,0.37985 0.42946,0.45713 0.20769,0.11751 0.45764,0.0399 0.6851,0.0626 0.29085,0.0103 0.58403,-0.0181 0.87072,0.0328 0.19053,0.0539 0.34903,0.19624 0.39396,0.39289 0.0538,0.10129 0.008,0.29992 0.17263,0.30174 0.4361,-0.0518 0.88668,-0.10795 1.32056,-0.0104 0.33443,0.0876 0.6349,0.28949 0.82695,0.57871 0.0658,0.0838 0.11905,0.24865 0.25878,0.19244 0.27745,-0.10788 0.56409,-0.31401 0.87599,-0.20439 0.38932,0.12118 0.62295,0.48938 0.94124,0.72113 0.27642,0.23269 0.67919,0.29662 1.00835,0.14117 0.10195,-0.0588 0.20128,-0.0941 0.29999,-0.004 1.20228,0.62128 2.49023,1.09603 3.8288,1.31355 0.1499,0.0392 0.19099,-0.12103 0.15958,-0.23438 -0.006,-0.11759 0.024,-0.30414 -0.14208,-0.31476 -3.96139,-1.1946 -7.9056,-2.45157 -11.83366,-3.75267 -0.0165,-0.005 -0.0338,-0.007 -0.0511,-0.006 z"
           id="path85"
           transform="scale(0.26458333)" /><path
           style="fill:#4b0505;fill-opacity:1;stroke:none;stroke-width:0;stroke-linecap:butt;stroke-dasharray:none;stroke-opacity:1"
           d="m 441.07227,228.9726 c -0.10755,0.0913 -0.0522,0.25626 -0.0673,0.38321 0.002,0.17402 0.22647,0.142 0.34392,0.1728 0.2017,0.0348 0.41765,0.0308 0.61117,0.0803 0.34146,0.32595 0.76079,0.59362 1.23861,0.64951 0.44667,0.0679 0.90574,0.0297 1.35059,0.0264 0.0742,0.33937 0.32897,0.64713 0.68026,0.71574 0.67502,0.14836 1.36955,-0.12439 2.04131,0.0536 0.25737,0.0769 0.40349,0.33234 0.46058,0.57922 0.0662,0.1477 0.22759,0.0349 0.32706,0.0126 0.43534,-0.11936 0.89997,-0.10347 1.32026,0.0709 0.60009,0.20337 1.15226,0.5615 1.7896,0.66015 0.30961,0.0338 0.63206,0.0259 0.92773,-0.069 0.10661,0.14713 0.20892,0.31246 0.35856,0.4157 0.17314,-0.01 0.10658,-0.22247 0.12435,-0.33991 0.0135,-0.10251 -0.002,-0.24016 -0.13149,-0.24964 -3.21521,-0.83804 -6.41506,-1.72643 -9.60288,-2.66406 -0.57564,-0.16316 -1.14859,-0.3487 -1.72517,-0.50056 -0.0157,0.001 -0.0314,0.002 -0.0472,0.003 z"
           id="path86"
           transform="scale(0.26458333)" /><path
           style="fill:#4b0505;fill-opacity:1;stroke:none;stroke-width:0;stroke-linecap:butt;stroke-dasharray:none;stroke-opacity:1"
           d="m 452.52965,232.17707 c -0.10735,0.10238 -0.0455,0.27537 -0.0675,0.41069 -0.0143,0.22938 0.24445,0.31581 0.40849,0.40478 0.54358,0.26827 1.17554,0.22289 1.7594,0.15054 0.10969,0.009 0.26445,-0.0994 0.33677,0.006 0.36068,0.46706 0.94681,0.68682 1.51729,0.74932 0.78262,0.10925 1.59773,0.0591 2.33614,0.37845 0.20427,0.0947 0.38349,0.25568 0.62013,0.26305 0.63678,0.0856 1.26759,0.21973 1.89078,0.34937 0.15871,-0.0205 0.0885,-0.22681 0.10865,-0.34013 0.0127,-0.11307 0.001,-0.26647 -0.14024,-0.28532 -2.91112,-0.64487 -5.81171,-1.35103 -8.70085,-2.09331 -0.023,0.002 -0.046,0.005 -0.0691,0.007 z"
           id="path87"
           transform="scale(0.26458333)" /><path
           style="fill:#4b0505;fill-opacity:1;stroke:none;stroke-width:0;stroke-linecap:butt;stroke-dasharray:none;stroke-opacity:1"
           d="m 461.43335,234.30797 c -0.14982,0.0621 -0.0845,0.2649 -0.10198,0.39093 -0.0387,0.14359 0.0635,0.24496 0.20425,0.24549 1.28892,0.31035 2.56657,0.68665 3.88147,0.87404 0.70476,0.0993 1.42176,0.1133 2.1309,0.0596 0.13117,-0.0416 0.24041,-0.0158 0.323,0.0956 0.51279,0.47828 1.23105,0.67562 1.9205,0.65704 0.69534,0.0197 1.39548,-0.017 2.0867,0.033 0.39539,0.0678 0.77593,0.23011 1.08311,0.49083 0.28405,0.0698 0.58017,0.11325 0.87042,0.15322 0.14305,-0.0598 0.0785,-0.25232 0.0959,-0.37306 0.0141,-0.11064 -0.0252,-0.25741 -0.16159,-0.2558 -4.11375,-0.67764 -8.20881,-1.47171 -12.28106,-2.3694 -0.017,-0.005 -0.0343,-0.002 -0.0516,-0.002 z"
           id="path88"
           transform="scale(0.26458333)" /><path
           style="fill:#4b0505;fill-opacity:1;stroke:none;stroke-width:0;stroke-linecap:butt;stroke-dasharray:none;stroke-opacity:1"
           d="m 473.93431,236.7153 c -0.17403,0.0432 -0.0997,0.26683 -0.11059,0.3949 -0.0303,0.13322 0.0585,0.24423 0.19741,0.22852 3.20585,0.50392 6.4362,0.82839 9.66381,1.15546 0.11365,0.015 0.32185,0.0424 0.29707,-0.1329 0.002,-0.11032 0.0303,-0.30101 -0.13279,-0.29474 -3.30321,-0.36514 -6.59554,-0.82891 -9.87741,-1.35033 -0.0124,-10e-4 -0.0251,-0.002 -0.0375,-9.1e-4 z"
           id="path89"
           transform="scale(0.26458333)" /><path
           style="fill:#4b0505;fill-opacity:1;stroke:none;stroke-width:0;stroke-linecap:butt;stroke-dasharray:none;stroke-opacity:1"
           d="m 483.95866,238.08942 c -0.12407,0.0659 -0.0932,0.24471 -0.0704,0.35999 0.0725,0.13121 0.2535,0.0664 0.37509,0.10097 3.0456,0.30219 6.09187,0.60635 9.12165,1.03517 0.16201,0.042 0.18575,-0.13565 0.16496,-0.25205 0.002,-0.11403 0.0284,-0.28867 -0.1295,-0.30407 -0.50749,-0.17332 -1.0092,-0.36376 -1.51615,-0.53557 -0.36165,0.047 -0.7275,0.0926 -1.09241,0.083 -0.82556,0.0114 -1.64968,0.003 -2.47078,-0.0869 -1.43367,-0.13655 -2.87283,-0.23581 -4.30336,-0.40164 -0.0265,-0.004 -0.0527,-0.004 -0.0791,10e-4 z"
           id="path90"
           transform="scale(0.26458333)" /><path
           style="fill:#4b0505;fill-opacity:1;stroke:none;stroke-width:0;stroke-linecap:butt;stroke-dasharray:none;stroke-opacity:1"
           d="m 493.54612,239.0519 c -0.15858,0.0337 -0.0925,0.23899 -0.10768,0.35282 -0.0347,0.12987 0.0601,0.22884 0.1896,0.2168 0.5374,0.079 1.07515,0.16871 1.61023,0.24797 0.13265,-0.007 0.11911,-0.20031 -0.002,-0.21743 -0.53116,-0.20515 -1.08429,-0.35335 -1.60998,-0.57146 -0.0217,-0.0199 -0.051,-0.03 -0.0803,-0.0287 z"
           id="path91"
           transform="scale(0.26458333)" /><path
           style="fill:#4b0505;fill-opacity:1;stroke:none;stroke-width:0;stroke-linecap:butt;stroke-dasharray:none;stroke-opacity:1"
           d="m 451.24023,393.77881 c -4.79287,4.15918 -9.36776,8.6161 -14.3284,12.60159 -33.06205,27.27791 -72.33536,46.02277 -112.75998,59.65085 -24.14523,8.14279 -48.83491,14.57481 -73.67431,20.22363 -0.42598,1.42744 -0.0406,2.65599 1.56821,1.86321 40.09209,-9.06276 79.87143,-20.49935 117.33122,-37.61574 29.623,-13.51661 57.50505,-31.1553 81.3918,-53.36533 1.19109,-0.62365 0.85633,-2.14995 0.69949,-3.25323 -0.0455,-0.0784 -0.13758,-0.12691 -0.22803,-0.10498 z"
           id="path92"
           transform="scale(0.26458333)" /><path
           style="fill:#4b0505;fill-opacity:1;stroke:none;stroke-width:0;stroke-linecap:butt;stroke-dasharray:none;stroke-opacity:1"
           d="m 237.46729,489.17556 c -7.54355,1.62503 -15.08891,3.24336 -22.64436,4.81295 -4.26961,0.8876 -8.53922,1.78276 -12.81067,2.6556 -0.1806,0.12613 -0.0532,0.41144 -0.0979,0.60059 0.006,0.53695 -0.0285,1.08057 0.037,1.61344 0.17109,0.13891 0.42649,-0.0438 0.62878,-0.0486 11.65177,-2.55936 23.32435,-5.02554 34.98361,-7.5486 0.17788,-0.18374 0.0332,-0.5177 0.0799,-0.76088 -0.0271,-0.42277 0.0565,-0.87061 -0.0633,-1.27905 -0.0255,-0.0349 -0.0705,-0.0533 -0.11316,-0.0455 z"
           id="path93"
           transform="scale(0.26458333)" /><path
           style="fill:#4b0505;fill-opacity:1;stroke:none;stroke-width:0;stroke-linecap:butt;stroke-dasharray:none;stroke-opacity:1"
           d="m 250.41006,486.30518 c -2.11622,0.43152 -4.21605,0.94128 -6.32722,1.39823 -2.17461,0.48389 -4.34918,0.9686 -6.52543,1.44366 -0.15856,0.13252 0.008,0.38467 -0.0348,0.57224 0.0333,0.49697 -0.0342,1.00929 0.0424,1.49582 0.35425,0.0247 0.71691,-0.13662 1.07384,-0.18764 4.03436,-0.88743 8.07024,-1.76882 12.09905,-2.68118 0.20467,-0.16398 -0.16261,-0.31543 -0.19793,-0.49951 -0.17166,-0.45268 -0.0774,-0.95895 -0.0127,-1.42466 0.006,-0.0629 -0.0576,-0.11991 -0.11722,-0.11696 z"
           id="path94"
           transform="scale(0.26458333)" /><path
           style="fill:#4b0505;fill-opacity:1;stroke:none;stroke-width:0;stroke-linecap:butt;stroke-dasharray:none;stroke-opacity:1"
           d="m 201.88606,496.69348 c -1.47404,0.28462 -2.95268,0.56596 -4.40957,0.92592 -0.14974,0.19001 0.19164,0.24851 0.28777,0.35486 1.17265,0.77617 2.29071,1.63538 3.47339,2.39476 0.237,0.011 0.10408,-0.26267 0.0555,-0.38644 -0.0726,-0.30878 -0.0464,-0.71603 0.20949,-0.92764 0.19756,-0.0891 0.61294,-0.0165 0.54062,-0.3399 -0.0159,-0.64772 -0.005,-1.29725 -0.0459,-1.94378 -0.0276,-0.0427 -0.0535,-0.0861 -0.11127,-0.0778 z"
           id="path95"
           transform="scale(0.26458333)" /><path
           style="fill:#4b0505;fill-opacity:1;stroke:none;stroke-width:0;stroke-linecap:butt;stroke-dasharray:none;stroke-opacity:1"
           d="m 480.27733,360.71457 c -0.23264,0.18242 -0.36348,0.48667 -0.56337,0.70928 -5.6876,7.6776 -11.80874,15.0305 -18.34774,21.99756 -3.24348,3.46591 -6.60109,6.82199 -10.00658,10.12891 -0.12245,0.0947 -0.17666,0.28149 -0.0299,0.37816 0.15327,0.60804 0.20676,1.24698 0.16944,1.86211 -0.0238,0.13457 -0.12017,0.4831 0.13439,0.39827 1.59498,-1.46736 3.10865,-3.02226 4.6524,-4.54346 8.49346,-8.4325 16.35394,-17.49781 23.55361,-27.05744 0.18883,-0.29795 0.49254,-0.54954 0.60689,-0.8782 -0.019,-0.96578 0.032,-1.93608 -0.0334,-2.89938 -0.0133,-0.0608 -0.0707,-0.1098 -0.13569,-0.0958 z"
           id="path96"
           transform="scale(0.26458333)" /><path
           style="fill:#4b0505;fill-opacity:1;stroke:none;stroke-width:0;stroke-linecap:butt;stroke-dasharray:none;stroke-opacity:1"
           d="m 499.24708,330.04951 c -5.4966,10.68446 -11.88158,20.90367 -18.96716,30.60714 0.079,0.97316 0.0293,1.96706 0.0752,2.9485 0.16209,0.2168 0.29479,-0.14339 0.40038,-0.24627 6.44826,-8.67632 12.34088,-17.76612 17.63817,-27.18921 0.35115,-0.6437 0.72954,-1.27727 1.05721,-1.93086 -0.008,-1.37698 -0.0153,-2.75396 -0.023,-4.13095 -0.0146,-0.0936 -0.11457,-0.12587 -0.18083,-0.0584 z"
           id="path97"
           transform="scale(0.26458333)" /><path
           style="fill:#4b0505;fill-opacity:1;stroke:none;stroke-width:0;stroke-linecap:butt;stroke-dasharray:none;stroke-opacity:1"
           d="m 513.85041,297.07997 c -2.71128,7.24434 -5.65255,14.40677 -8.93314,21.41494 -1.78727,3.84876 -3.6884,7.64462 -5.59535,11.43609 -0.008,1.36477 0.0104,2.73529 0.0396,4.1016 0.14977,0.2265 0.26699,-0.10657 0.33881,-0.22655 5.33148,-9.73214 9.99803,-19.82518 14.00728,-30.17158 0.15021,-0.40196 0.37718,-0.79073 0.30582,-1.23549 0.006,-1.75303 0.0115,-3.50607 0.0173,-5.25911 -0.0137,-0.0939 -0.11347,-0.12682 -0.18031,-0.0599 z"
           id="path98"
           transform="scale(0.26458333)" /><path
           style="fill:none;fill-opacity:0.485816;stroke:#837272;stroke-width:0.2;stroke-linecap:round;stroke-dasharray:none;stroke-opacity:1"
           d="m 123.31358,45.300352 c 10.29706,-10.370232 -5.91051,-14.143645 10.29706,-10.370232 2.99685,0.697719 6.2852,0.118812 7.94629,1.194497 7.32245,4.741847 3.60414,12.676273 9.04686,2.578916 1.19916,-2.224689 5.79313,-2.37334 5.6153,-5.094452 -0.11343,-1.735564 -1.60892,-5.088023 1.26717,-9.428729 2.70645,-4.08468 8.33828,-8.415065 10.66206,-8.600968"
           id="path24-3"
           sodipodi:nodetypes="csssssc" /></g><path
         style="fill:#4b0505;fill-opacity:1;stroke:#837272;stroke-width:0.0944882;stroke-linecap:butt;stroke-dasharray:none;stroke-opacity:1"
         d="m 517.47119,287.11206 c -0.87986,1.82398 -1.38391,3.83438 -2.11436,5.73011 -0.45223,1.45953 -1.15021,2.87346 -1.45693,4.35802 0.0174,1.77188 -0.0388,3.54801 0.0466,5.31739 0.43081,0.0786 0.39401,-0.89455 0.64151,-1.18467 1.36609,-3.58153 2.57017,-7.24833 4.05161,-10.77114 0.28097,-0.30966 -0.2394,-0.38592 -0.21924,-0.7002 -0.33597,-0.89778 -0.46732,-1.88131 -0.84961,-2.75098 z"
         id="path99"
         transform="scale(0.26458333)" /></g></g></svg>
